<?xml version="1.0" encoding="UTF-8"?>
<svg xmlns="http://www.w3.org/2000/svg" xmlns:xlink="http://www.w3.org/1999/xlink" width="30px" height="30px" viewBox="0 0 30 30" version="1.1">
<g id="surface1">
<path style=" stroke:none;fill-rule:nonzero;fill:rgb(0%,0%,0%);fill-opacity:1;" d="M 22.5 6.492188 C 22.5 6.929688 22.9375 7.367188 23.550781 7.367188 C 24.429688 7.367188 24.691406 7.015625 24.691406 6.492188 C 24.691406 6.402344 24.691406 6.402344 24.691406 6.316406 C 24.605469 6.050781 24.339844 5.878906 24.078125 5.703125 C 23.992188 5.703125 23.816406 5.613281 23.640625 5.613281 C 23.027344 5.613281 22.5 5.964844 22.5 6.492188 Z M 22.5 6.492188 "/>
<path style=" stroke:none;fill-rule:nonzero;fill:rgb(0%,0%,0%);fill-opacity:1;" d="M 24.339844 3.597656 C 24.253906 3.070312 23.902344 2.632812 23.464844 2.632812 C 23.027344 2.632812 22.761719 3.070312 22.851562 3.597656 C 22.941406 4.121094 23.289062 4.5625 23.726562 4.5625 C 24.078125 4.5625 24.429688 4.121094 24.339844 3.597656 Z M 24.339844 3.597656 "/>
<path style=" stroke:none;fill-rule:nonzero;fill:rgb(0%,0%,0%);fill-opacity:1;" d="M 20.394531 10.175781 L 21.886719 8.683594 C 22.761719 9.386719 23.816406 9.824219 24.957031 9.824219 C 27.675781 9.824219 29.867188 7.628906 29.867188 4.910156 C 29.867188 2.191406 27.675781 0 24.957031 0 C 22.238281 0 20.042969 2.191406 20.042969 4.914062 C 20.042969 6.140625 20.480469 7.191406 21.183594 7.980469 L 19.691406 9.472656 C 19.957031 9.738281 20.21875 10 20.394531 10.175781 Z M 25.746094 3.332031 L 26.710938 3.332031 L 26.710938 2.367188 L 27.0625 2.367188 L 27.0625 3.332031 L 28.027344 3.332031 L 28.027344 3.683594 L 27.0625 3.683594 L 27.0625 4.648438 L 26.710938 4.648438 L 26.710938 3.683594 L 25.746094 3.683594 Z M 23.550781 5 C 23.550781 4.910156 23.550781 4.824219 23.640625 4.738281 C 23.550781 4.738281 23.550781 4.738281 23.464844 4.738281 C 22.761719 4.738281 22.238281 4.210938 22.238281 3.597656 C 22.238281 2.980469 22.9375 2.457031 23.640625 2.457031 L 25.21875 2.457031 L 24.867188 2.71875 L 24.339844 2.71875 C 24.691406 2.808594 24.867188 3.246094 24.867188 3.683594 C 24.867188 4.035156 24.691406 4.296875 24.429688 4.5625 C 24.164062 4.738281 24.078125 4.824219 24.078125 5 C 24.078125 5.175781 24.339844 5.4375 24.515625 5.527344 C 24.953125 5.789062 25.042969 6.140625 25.042969 6.578125 C 25.042969 7.191406 24.515625 7.71875 23.464844 7.71875 C 22.585938 7.71875 21.796875 7.367188 21.796875 6.753906 C 21.796875 6.140625 22.5 5.613281 23.375 5.613281 C 23.464844 5.613281 23.550781 5.613281 23.640625 5.613281 C 23.640625 5.351562 23.550781 5.175781 23.550781 5 Z M 23.550781 5 "/>
<path style=" stroke:none;fill-rule:nonzero;fill:rgb(0%,0%,0%);fill-opacity:1;" d="M 24.957031 20.175781 C 23.816406 20.175781 22.675781 20.613281 21.886719 21.316406 L 20.394531 19.824219 C 20.21875 20.085938 19.957031 20.261719 19.78125 20.4375 L 21.273438 21.929688 C 20.570312 22.804688 20.132812 23.859375 20.132812 25 C 20.132812 27.71875 22.324219 29.910156 25.042969 29.910156 C 27.761719 29.910156 29.957031 27.71875 29.957031 25 C 29.867188 22.28125 27.675781 20.175781 24.957031 20.175781 Z M 23.550781 27.28125 L 22.585938 27.28125 L 22.585938 24.210938 L 23.550781 24.210938 Z M 23.113281 23.773438 C 22.761719 23.773438 22.5 23.507812 22.5 23.246094 C 22.5 22.980469 22.761719 22.71875 23.113281 22.71875 C 23.464844 22.71875 23.726562 22.980469 23.726562 23.246094 C 23.640625 23.597656 23.464844 23.773438 23.113281 23.773438 Z M 27.5 27.28125 L 26.359375 27.28125 L 26.359375 25.703125 C 26.359375 25.261719 26.183594 25 25.832031 25 C 25.570312 25 25.394531 25.175781 25.304688 25.351562 C 25.304688 25.441406 25.304688 25.527344 25.304688 25.613281 L 25.304688 27.28125 L 24.253906 27.28125 C 24.253906 27.28125 24.253906 24.472656 24.253906 24.210938 L 25.304688 24.210938 L 25.304688 24.648438 C 25.394531 24.472656 25.746094 24.125 26.273438 24.125 C 26.972656 24.125 27.5 24.5625 27.5 25.527344 Z M 27.5 27.28125 "/>
<path style=" stroke:none;fill-rule:nonzero;fill:rgb(0%,0%,0%);fill-opacity:1;" d="M 9.515625 19.824219 L 8.027344 21.316406 C 7.148438 20.613281 6.097656 20.175781 4.957031 20.175781 C 2.238281 20.175781 0.0429688 22.371094 0.0429688 25.085938 C 0.0429688 27.808594 2.238281 30 4.957031 30 C 7.675781 30 9.867188 27.808594 9.867188 25.085938 C 9.867188 23.949219 9.429688 22.808594 8.726562 22.019531 L 10.21875 20.527344 C 9.957031 20.261719 9.691406 20 9.515625 19.824219 Z M 7.0625 24.296875 C 7.0625 25.789062 5.921875 27.457031 3.902344 27.457031 C 3.289062 27.457031 2.675781 27.28125 2.238281 26.929688 C 2.324219 26.929688 2.414062 26.929688 2.5 26.929688 C 3.027344 26.929688 3.464844 26.753906 3.902344 26.488281 C 3.464844 26.488281 3.027344 26.140625 2.851562 25.699219 C 2.9375 25.699219 3.027344 25.699219 3.027344 25.699219 C 3.113281 25.699219 3.203125 25.699219 3.289062 25.699219 C 2.761719 25.613281 2.414062 25.175781 2.414062 24.648438 C 2.589844 24.734375 2.761719 24.824219 2.9375 24.824219 C 2.675781 24.648438 2.414062 24.296875 2.414062 23.945312 C 2.414062 23.769531 2.5 23.59375 2.589844 23.417969 C 3.113281 24.121094 3.902344 24.558594 4.867188 24.558594 C 4.867188 24.472656 4.867188 24.382812 4.867188 24.296875 C 4.867188 23.683594 5.394531 23.15625 6.007812 23.15625 C 6.359375 23.15625 6.621094 23.332031 6.796875 23.507812 C 7.0625 23.417969 7.324219 23.332031 7.5 23.242188 C 7.414062 23.507812 7.238281 23.683594 6.972656 23.855469 C 7.238281 23.855469 7.414062 23.769531 7.585938 23.683594 C 7.414062 23.945312 7.238281 24.121094 7.0625 24.207031 C 7.0625 24.210938 7.0625 24.210938 7.0625 24.296875 Z M 7.0625 24.296875 "/>
<path style=" stroke:none;fill-rule:nonzero;fill:rgb(0%,0%,0%);fill-opacity:1;" d="M 4.957031 9.824219 C 6.097656 9.824219 7.238281 9.386719 8.027344 8.683594 L 9.515625 10.175781 C 9.691406 9.914062 9.957031 9.738281 10.132812 9.5625 L 8.640625 8.070312 C 9.339844 7.191406 9.78125 6.140625 9.78125 5 C 9.78125 2.28125 7.585938 0.0898438 4.867188 0.0898438 C 2.148438 0.0898438 0.0429688 2.28125 0.0429688 5 C 0.0429688 7.632812 2.238281 9.824219 4.957031 9.824219 Z M 3.816406 4.121094 L 4.34375 4.121094 L 4.34375 3.597656 C 4.34375 2.894531 4.605469 2.457031 5.480469 2.457031 L 6.183594 2.457031 L 6.183594 3.332031 L 5.746094 3.332031 C 5.394531 3.332031 5.394531 3.421875 5.394531 3.683594 L 5.394531 4.121094 L 6.183594 4.121094 L 6.097656 5 L 5.304688 5 L 5.304688 7.457031 L 4.253906 7.457031 L 4.253906 5 L 3.726562 5 L 3.726562 4.121094 Z M 3.816406 4.121094 "/>
<path style=" stroke:none;fill-rule:nonzero;fill:rgb(0%,0%,0%);fill-opacity:1;" d="M 19.429688 17.457031 C 19.339844 17.28125 19.167969 17.191406 19.078125 17.191406 C 18.289062 16.929688 17.589844 16.753906 16.796875 16.492188 C 16.710938 16.492188 16.535156 16.316406 16.535156 15.964844 C 16.535156 15.789062 16.535156 15.699219 16.359375 15.699219 C 16.273438 15.699219 16.359375 15.699219 16.273438 15.613281 C 16.183594 15.261719 16.183594 15.085938 16.183594 15 C 16.183594 14.910156 16.273438 14.910156 16.273438 14.824219 C 16.535156 14.472656 16.621094 13.945312 16.621094 13.769531 C 16.621094 13.769531 16.710938 13.769531 16.710938 13.683594 C 16.796875 13.507812 16.796875 13.507812 16.796875 13.242188 C 16.886719 13.070312 16.886719 12.804688 16.710938 12.804688 C 16.621094 12.894531 16.621094 12.804688 16.621094 12.628906 L 16.621094 11.578125 C 16.621094 11.226562 16.359375 10.964844 16.183594 10.875 C 15.921875 10.699219 15.832031 10.613281 15.746094 10.613281 C 15.65625 10.527344 15.65625 10.4375 15.746094 10.351562 C 15.832031 10.261719 15.921875 10.261719 15.921875 10.175781 C 15.921875 10.175781 15.921875 10.175781 15.832031 10.175781 C 15.746094 10.175781 15.21875 10.261719 14.957031 10.351562 C 14.515625 10.4375 14.078125 10.613281 13.726562 10.875 C 13.464844 11.050781 13.289062 11.316406 13.289062 11.667969 C 13.289062 11.839844 13.289062 12.367188 13.289062 12.71875 C 13.289062 12.808594 13.289062 12.894531 13.203125 12.808594 C 12.9375 12.808594 13.113281 13.160156 13.113281 13.246094 C 13.113281 13.421875 13.203125 13.507812 13.289062 13.683594 C 13.289062 13.773438 13.375 13.773438 13.375 13.773438 C 13.464844 14.035156 13.550781 14.5625 13.726562 14.824219 C 13.726562 14.824219 13.816406 14.914062 13.816406 15 C 13.816406 15.175781 13.816406 15.4375 13.726562 15.613281 C 13.726562 15.613281 13.726562 15.703125 13.640625 15.703125 C 13.464844 15.703125 13.464844 15.789062 13.464844 15.964844 C 13.464844 16.230469 13.289062 16.492188 13.203125 16.492188 C 12.761719 16.667969 11.445312 17.105469 11.007812 17.195312 C 10.746094 17.28125 10.65625 17.371094 10.570312 17.457031 L 10.132812 18.507812 C 11.886719 18.507812 12.761719 19.5625 14.605469 19.914062 L 15.480469 19.914062 C 17.324219 19.648438 18.640625 18.507812 19.867188 18.507812 Z M 19.429688 17.457031 "/>
</g>
</svg>
